<svg xmlns="http://www.w3.org/2000/svg" width="36.709" height="36.708" viewBox="0 0 36.709 36.708">
  <g id="email" transform="translate(0 0)">
    <g id="background" transform="translate(-1578 -347)" fill="none">
      <path d="M1596.355,347h0a18.338,18.338,0,0,1,18.354,18.354h0a18.338,18.338,0,0,1-18.354,18.354h0A18.337,18.337,0,0,1,1578,365.354h0A18.338,18.338,0,0,1,1596.355,347Z" stroke="none"/>
      <path d="M 1596.354614257812 347.9999084472656 C 1591.712890625 347.9999084472656 1587.353149414062 349.8033447265625 1584.078491210938 353.0779113769531 C 1580.803955078125 356.3525695800781 1579.00048828125 360.7123718261719 1579.00048828125 365.3542175292969 C 1579.00048828125 369.9960021972656 1580.803955078125 374.3557434082031 1584.078491210938 377.63037109375 C 1587.353149414062 380.9049377441406 1591.712890625 382.7083740234375 1596.354614257812 382.7083740234375 C 1600.99658203125 382.7083740234375 1605.356323242188 380.9049377441406 1608.630981445312 377.63037109375 C 1611.905639648438 374.3557739257812 1613.709106445312 369.9960021972656 1613.709106445312 365.3542175292969 C 1613.709106445312 360.7123718261719 1611.905639648438 356.3525695800781 1608.630981445312 353.0779418945312 C 1605.356323242188 349.8033447265625 1600.99658203125 347.9999084472656 1596.354614257812 347.9999084472656 M 1596.354614257812 346.9999084472656 C 1606.504638671875 346.9999084472656 1614.709106445312 355.2042541503906 1614.709106445312 365.3542175292969 C 1614.709106445312 375.5040283203125 1606.504638671875 383.7083740234375 1596.354614257812 383.7083740234375 C 1586.204956054688 383.7083740234375 1578.00048828125 375.5040283203125 1578.00048828125 365.3542175292969 C 1578.00048828125 355.2042541503906 1586.204956054688 346.9999084472656 1596.354614257812 346.9999084472656 Z" stroke="none" fill="#1d2e88"/>
    </g>
    <g id="email_1_1" data-name="email (1) 1" transform="translate(10.301 11.237)">
      <path id="Vector" d="M1608.585,363.764a2.07,2.07,0,0,0-2.041-1.764h-12.711a2.07,2.07,0,0,0-2.041,1.764l8.4,5.433Z" transform="translate(-1591.761 -362)" fill="#1d2e88"/>
      <path id="Vector-2" data-name="Vector" d="M1600.484,371.37a.562.562,0,0,1-.61,0l-8.123-5.256v8.33a2.074,2.074,0,0,0,2.072,2.073h12.711a2.075,2.075,0,0,0,2.073-2.073v-8.33Z" transform="translate(-1591.751 -363.032)" fill="#1d2e88"/>
    </g>
  </g>
</svg>
