<svg id="Group" xmlns="http://www.w3.org/2000/svg" width="17.98" height="17.981" viewBox="0 0 17.98 17.981">
  <path id="Vector" d="M1042.114,404.142a8.988,8.988,0,1,0-8.134,12.835h.109a9.031,9.031,0,0,0,4.715-1.4.877.877,0,1,0-.941-1.481,7.23,7.23,0,0,1-7.71.028,7.235,7.235,0,1,1,11.024-5.326.878.878,0,0,0,1.745.193,9.025,9.025,0,0,0-.808-4.852Z" transform="translate(-1024.997 -398.997)" fill="#1d2e88"/>
  <path id="Vector-2" data-name="Vector" d="M1038.427,406.846l-4.234,4.234-1.57-1.569a.879.879,0,0,0-1.243,1.243l2.191,2.191a.881.881,0,0,0,1.243,0l4.852-4.855a.878.878,0,0,0-1.24-1.243Z" transform="translate(-1026.535 -400.903)" fill="#1d2e88"/>
</svg>
