<svg xmlns="http://www.w3.org/2000/svg" width="2690.461" height="735.651" viewBox="0 0 2690.461 735.651">
  <g id="Group_15" data-name="Group 15" transform="translate(1363.095 -234.769)">
    <path id="Vector_5" data-name="Vector 5" d="M0-142.949S213.891-18.322,364.608-1.982C670.644,31.2,777.55-363.486,1084.517-342.166c111.2,7.724,277.562,70.483,277.562,70.483" transform="translate(-34.889 578.234)" fill="none" stroke="rgba(247,199,68,0.45)" stroke-width="1"/>
    <path id="Vector_5-2" data-name="Vector 5" d="M0-142.949S213.891-18.322,364.608-1.982C670.644,31.2,777.55-363.486,1084.517-342.166c111.2,7.724,277.562,70.483,277.562,70.483" transform="translate(-35.889 650.234)" fill="none" stroke="rgba(247,199,68,0.45)" stroke-width="1"/>
    <path id="Vector_5-3" data-name="Vector 5" d="M0-142.949S213.891-18.322,364.608-1.982C670.644,31.2,777.55-363.486,1084.517-342.166c111.2,7.724,277.562,70.483,277.562,70.483" transform="translate(-35.889 732.234)" fill="none" stroke="rgba(247,199,68,0.45)" stroke-width="1"/>
    <path id="Vector_8" data-name="Vector 8" d="M-34.815,386.293s-226.356-85.807-378.123-76.717c-308.168,18.457-356.293,424.829-663.647,455.115C-1187.927,775.663-1362,741.671-1362,741.671" transform="translate(0 49)" fill="none" stroke="rgba(247,199,68,0.45)" stroke-width="1"/>
    <path id="Vector_8-2" data-name="Vector 8" d="M-34.815,386.293s-226.356-85.807-378.123-76.717c-308.168,18.457-356.293,424.829-663.647,455.115C-1187.927,775.663-1362,741.671-1362,741.671" transform="translate(-1 121)" fill="none" stroke="rgba(247,199,68,0.45)" stroke-width="1"/>
    <path id="Vector_8-3" data-name="Vector 8" d="M-34.815,386.293s-226.356-85.807-378.123-76.717c-308.168,18.457-356.293,424.829-663.647,455.115C-1187.927,775.663-1362,741.671-1362,741.671" transform="translate(-1 203)" fill="none" stroke="rgba(247,199,68,0.45)" stroke-width="1"/>
  </g>
</svg>
