<svg xmlns="http://www.w3.org/2000/svg" width="36.708" height="36.708" viewBox="0 0 36.708 36.708">
  <g id="phone" transform="translate(0 0)">
    <g id="background" transform="translate(-1513 -347)" fill="none">
      <path d="M1531.355,347h0a18.337,18.337,0,0,1,18.354,18.354h0a18.337,18.337,0,0,1-18.354,18.354h0A18.338,18.338,0,0,1,1513,365.354h0A18.338,18.338,0,0,1,1531.355,347Z" stroke="none"/>
      <path d="M 1531.354614257812 347.9999084472656 C 1526.712646484375 347.9999084472656 1522.352783203125 349.8033447265625 1519.078125 353.0779418945312 C 1515.803466796875 356.3525390625 1514 360.7123413085938 1514 365.3542175292969 C 1514 369.9960021972656 1515.803466796875 374.3557739257812 1519.078125 377.63037109375 C 1522.352783203125 380.9049377441406 1526.712646484375 382.7083740234375 1531.354614257812 382.7083740234375 C 1535.996459960938 382.7083740234375 1540.356201171875 380.9049377441406 1543.630737304688 377.63037109375 C 1546.905151367188 374.3558044433594 1548.70849609375 369.9960632324219 1548.70849609375 365.3542175292969 C 1548.70849609375 360.7123107910156 1546.905151367188 356.3525085449219 1543.630737304688 353.0779113769531 C 1540.356201171875 349.8033447265625 1535.996459960938 347.9999084472656 1531.354614257812 347.9999084472656 M 1531.354614257812 346.9999084472656 C 1541.504638671875 346.9999084472656 1549.70849609375 355.2042541503906 1549.70849609375 365.3542175292969 C 1549.70849609375 375.5040283203125 1541.504638671875 383.7083740234375 1531.354614257812 383.7083740234375 C 1521.204467773438 383.7083740234375 1513 375.5040283203125 1513 365.3542175292969 C 1513 355.2042541503906 1521.204467773438 346.9999084472656 1531.354614257812 346.9999084472656 Z" stroke="none" fill="#1d2e88"/>
    </g>
    <g id="telephone_1" data-name="telephone 1" transform="translate(10.429 8.99)">
      <g id="Group">
        <g id="Group-2" data-name="Group">
          <path id="Vector" d="M1543.148,373.014l-.093-.2c-.278-.658-3.709-1.667-3.994-1.683l-.228.017c-.468.1-.983.54-2.065,1.5a14.255,14.255,0,0,1-3.674-2.955,12.413,12.413,0,0,1-2.3-3.78c1.234-1.094,1.748-1.568,1.78-2.1.018-.284-.571-3.809-1.19-4.167l-.186-.117a2.29,2.29,0,0,0-1.654-.5,1.453,1.453,0,0,0-.463.187,5.883,5.883,0,0,0-2.029,2.024c-.306.615-.446,6.228,3.761,10.972a13.6,13.6,0,0,0,9.447,4.769h.218a2.361,2.361,0,0,0,.386-.032l.022,0,.069-.021a5.835,5.835,0,0,0,2.252-1.772A1.929,1.929,0,0,0,1543.148,373.014Z" transform="translate(-1526.921 -359)" fill="#1d2e88"/>
        </g>
      </g>
    </g>
  </g>
</svg>
