<svg xmlns="http://www.w3.org/2000/svg" width="36.708" height="36.709" viewBox="0 0 36.708 36.709">
  <g id="phone" transform="translate(0 0)">
    <g id="background" transform="translate(-1513 -527)" fill="none">
      <path d="M1531.355,527h0a18.337,18.337,0,0,1,18.354,18.354h0a18.337,18.337,0,0,1-18.354,18.354h0A18.338,18.338,0,0,1,1513,545.354h0A18.338,18.338,0,0,1,1531.355,527Z" stroke="none"/>
      <path d="M 1531.354614257812 527.9998779296875 C 1526.712646484375 527.9998779296875 1522.352783203125 529.8032836914062 1519.078125 533.0779418945312 C 1515.803466796875 536.3525390625 1514 540.7122802734375 1514 545.3541259765625 C 1514 549.9959716796875 1515.803466796875 554.3557739257812 1519.078125 557.63037109375 C 1522.352783203125 560.905029296875 1526.712646484375 562.7084350585938 1531.354614257812 562.7084350585938 C 1535.996459960938 562.7084350585938 1540.356201171875 560.905029296875 1543.630737304688 557.63037109375 C 1546.905151367188 554.3557739257812 1548.70849609375 549.9960327148438 1548.70849609375 545.3541259765625 C 1548.70849609375 540.7122802734375 1546.905151367188 536.3524780273438 1543.630737304688 533.0779418945312 C 1540.356201171875 529.8032836914062 1535.996459960938 527.9998779296875 1531.354614257812 527.9998779296875 M 1531.354614257812 526.9998779296875 C 1541.504638671875 526.9998779296875 1549.70849609375 535.2042846679688 1549.70849609375 545.3541259765625 C 1549.70849609375 555.5040283203125 1541.504638671875 563.7084350585938 1531.354614257812 563.7084350585938 C 1521.204467773438 563.7084350585938 1513 555.5040283203125 1513 545.3541259765625 C 1513 535.2042846679688 1521.204467773438 526.9998779296875 1531.354614257812 526.9998779296875 Z" stroke="none" fill="#1d2e88"/>
    </g>
    <g id="whatsapp_1" data-name="whatsapp 1" transform="translate(10.488 9.739)">
      <path id="x30_8.Whatsapp" data-name="x30 8.Whatsapp" d="M8.241,16.481a8.141,8.141,0,0,1-4.533-1.359l-3.276.947,1.133-2.987A8.255,8.255,0,0,1,2.413,2.413,8.242,8.242,0,0,1,14.068,14.068,8.186,8.186,0,0,1,8.241,16.481ZM5.431,3.605a.855.855,0,0,0-.61.247l-.886.886c-.876.918.14,3.395,2.266,5.521,1.571,1.586,3.37,2.61,4.581,2.61a1.3,1.3,0,0,0,.961-.344l.886-.866a.976.976,0,0,0-.021-1.277l-1.3-1.3a.856.856,0,0,0-.609-.252.84.84,0,0,0-.813.582.856.856,0,0,1-.817.58.792.792,0,0,1-.192-.023,3.521,3.521,0,0,1-1.468-.917,3.307,3.307,0,0,1-.942-1.473.713.713,0,0,1,.039-.548.923.923,0,0,1,.517-.461.826.826,0,0,0,.557-.6.86.86,0,0,0-.227-.821l-1.3-1.3A.908.908,0,0,0,5.431,3.605Z" fill="#1d2e88"/>
    </g>
  </g>
</svg>
